{
  "accessors": [
    {
      "bufferView": 2,
      "componentType": 5126,
      "count": 5660,
      "max": [
        1.2354568243026733,
        1.876573085784912,
        1.005742073059082
      ],
      "min": [
        -1.4607213735580444,
        -1.795425534248352,
        -1.9183990955352783
      ],
      "type": "VEC3"
    },
    {
      "bufferView": 2,
      "byteOffset": 67920,
      "componentType": 5126,
      "count": 5660,
      "max": [
        1.0,
        1.0,
        1.0
      ],
      "min": [
        -1.0,
        -1.0,
        -1.0
      ],
      "type": "VEC3"
    },
    {
      "bufferView": 3,
      "componentType": 5126,
      "count": 5660,
      "max": [
        1.0,
        1.0,
        1.0,
        1.0
      ],
      "min": [
        -1.0,
        -1.0,
        -1.0,
        1.0
      ],
      "type": "VEC4"
    },
    {
      "bufferView": 1,
      "componentType": 5126,
      "count": 5660,
      "max": [
        0.9712588787078857,
        0.9640909433364868
      ],
      "min": [
        0.0008886201540008187,
        0.0008208118961192667
      ],
      "type": "VEC2"
    },
    {
      "bufferView": 1,
      "byteOffset": 45280,
      "componentType": 5126,
      "count": 5660,
      "max": [
        0.9712588787078857,
        0.9640909433364868
      ],
      "min": [
        0.0008886201540008187,
        0.0008208118961192667
      ],
      "type": "VEC2"
    },
    {
      "bufferView": 0,
      "componentType": 5125,
      "count": 21252,
      "type": "SCALAR"
    },
    {
      "bufferView": 2,
      "byteOffset": 135840,
      "componentType": 5126,
      "count": 86,
      "max": [
        0.7482999563217163,
        -0.1582646667957306,
        1.8510465621948242
      ],
      "min": [
        -0.7482999563217163,
        -0.15826469659805298,
        1.4495729207992554
      ],
      "type": "VEC3"
    },
    {
      "bufferView": 2,
      "byteOffset": 136872,
      "componentType": 5126,
      "count": 86,
      "max": [
        9.60096144808631e-07,
        -1.0,
        8.649025176055147e-07
      ],
      "min": [
        -9.600963721823064e-07,
        -1.0,
        -1.209635115628771e-06
      ],
      "type": "VEC3"
    },
    {
      "bufferView": 3,
      "byteOffset": 90560,
      "componentType": 5126,
      "count": 86,
      "max": [
        6.123710772953928e-05,
        8.649035976304731e-07,
        1.0,
        1.0
      ],
      "min": [
        -8.408376015722752e-05,
        -1.2096329555788543e-06,
        1.0,
        1.0
      ],
      "type": "VEC4"
    },
    {
      "bufferView": 1,
      "byteOffset": 90560,
      "componentType": 5126,
      "count": 86,
      "max": [
        0.5053413510322571,
        0.17023910582065582
      ],
      "min": [
        0.46305134892463684,
        0.012592403218150139
      ],
      "type": "VEC2"
    },
    {
      "bufferView": 0,
      "byteOffset": 85008,
      "componentType": 5125,
      "count": 396,
      "type": "SCALAR"
    },
    {
      "bufferView": 2,
      "byteOffset": 137904,
      "componentType": 5126,
      "count": 239,
      "max": [
        1.1765034198760986,
        0.08357643336057663,
        0.9265033602714539
      ],
      "min": [
        -0.22581808269023895,
        -0.29713529348373413,
        0.18600495159626007
      ],
      "type": "VEC3"
    },
    {
      "bufferView": 2,
      "byteOffset": 140772,
      "componentType": 5126,
      "count": 239,
      "max": [
        0.923879861831665,
        -0.3826828896999359,
        0.9238794445991516
      ],
      "min": [
        -0.9238795638084412,
        -1.0,
        -0.9238796830177307
      ],
      "type": "VEC3"
    },
    {
      "bufferView": 3,
      "byteOffset": 91936,
      "componentType": 5126,
      "count": 239,
      "max": [
        0.1152321845293045,
        0.9160470366477966,
        0.9951875805854797,
        1.0
      ],
      "min": [
        -0.9848541617393494,
        -0.9207925200462341,
        -1.0,
        1.0
      ],
      "type": "VEC4"
    },
    {
      "bufferView": 1,
      "byteOffset": 91248,
      "componentType": 5126,
      "count": 239,
      "max": [
        0.688124418258667,
        0.6594526171684265
      ],
      "min": [
        0.3974085748195648,
        0.4294038712978363
      ],
      "type": "VEC2"
    },
    {
      "bufferView": 0,
      "byteOffset": 86592,
      "componentType": 5125,
      "count": 1152,
      "type": "SCALAR"
    }
  ],
  "asset": {
    "extras": {
      "author": "Gabriel (https://sketchfab.com/wokom)",
      "license": "CC-BY-4.0 (http://creativecommons.org/licenses/by/4.0/)",
      "source": "https://sketchfab.com/3d-models/polaroid-1e6c0c93c9fd4603822eed99350073c9",
      "title": "Polaroid"
    },
    "generator": "Sketchfab-15.87.0",
    "version": "2.0"
  },
  "bufferViews": [
    {
      "buffer": 0,
      "byteLength": 91200,
      "name": "floatBufferViews",
      "target": 34963
    },
    {
      "buffer": 0,
      "byteLength": 93160,
      "byteOffset": 91200,
      "byteStride": 8,
      "name": "floatBufferViews",
      "target": 34962
    },
    {
      "buffer": 0,
      "byteLength": 143640,
      "byteOffset": 184360,
      "byteStride": 12,
      "name": "floatBufferViews",
      "target": 34962
    },
    {
      "buffer": 0,
      "byteLength": 95760,
      "byteOffset": 328000,
      "byteStride": 16,
      "name": "floatBufferViews",
      "target": 34962
    }
  ],
  "buffers": [
    {
      "byteLength": 423760,
      "uri": "scene.bin"
    }
  ],
  "extensionsUsed": [
    "KHR_materials_specular",
    "KHR_materials_transmission"
  ],
  "images": [
    {
      "uri": "textures/Texture_baseColor.png"
    },
    {
      "uri": "textures/Texture_metallicRoughness.png"
    },
    {
      "uri": "textures/Texture_normal.png"
    },
    {
      "uri": "textures/Flash_normal.png"
    },
    {
      "uri": "textures/Glass_baseColor.png"
    },
    {
      "uri": "textures/Glass_metallicRoughness.png"
    },
    {
      "uri": "textures/Glass_transmission.png"
    }
  ],
  "materials": [
    {
      "doubleSided": true,
      "extensions": {
        "KHR_materials_specular": {
          "specularColorFactor": [
            1.0,
            1.0,
            1.0
          ],
          "specularFactor": 1.0
        }
      },
      "name": "Texture",
      "normalTexture": {
        "index": 2
      },
      "occlusionTexture": {
        "index": 1
      },
      "pbrMetallicRoughness": {
        "baseColorTexture": {
          "index": 0
        },
        "metallicFactor": 0.0,
        "metallicRoughnessTexture": {
          "index": 1
        },
        "roughnessFactor": 0.5
      }
    },
    {
      "alphaMode": "BLEND",
      "doubleSided": true,
      "extensions": {
        "KHR_materials_transmission": {
          "transmissionFactor": 0.7211420072899271
        }
      },
      "name": "Flash",
      "normalTexture": {
        "index": 3
      },
      "occlusionTexture": {
        "index": 1
      },
      "pbrMetallicRoughness": {
        "baseColorFactor": [
          1.0,
          0.6881751219910668,
          0.22232376186523453,
          0.278857992710073
        ],
        "baseColorTexture": {
          "index": 0
        },
        "metallicRoughnessTexture": {
          "index": 1
        },
        "roughnessFactor": 0.13257183259987076
      }
    },
    {
      "alphaMode": "BLEND",
      "doubleSided": true,
      "extensions": {
        "KHR_materials_transmission": {
          "transmissionFactor": 1.0,
          "transmissionTexture": {
            "index": 6
          }
        }
      },
      "name": "Glass",
      "normalTexture": {
        "index": 3
      },
      "pbrMetallicRoughness": {
        "baseColorTexture": {
          "index": 4
        },
        "metallicFactor": 0.0,
        "metallicRoughnessTexture": {
          "index": 5
        },
        "roughnessFactor": 0.5104777462178932
      }
    }
  ],
  "meshes": [
    {
      "name": "Cam_Texture_0",
      "primitives": [
        {
          "attributes": {
            "NORMAL": 1,
            "POSITION": 0,
            "TANGENT": 2,
            "TEXCOORD_0": 3,
            "TEXCOORD_1": 4
          },
          "indices": 5,
          "material": 0,
          "mode": 4
        }
      ]
    },
    {
      "name": "Flash_Flash_0",
      "primitives": [
        {
          "attributes": {
            "NORMAL": 7,
            "POSITION": 6,
            "TANGENT": 8,
            "TEXCOORD_0": 9
          },
          "indices": 10,
          "material": 1,
          "mode": 4
        }
      ]
    },
    {
      "name": "Glass_Glass_0",
      "primitives": [
        {
          "attributes": {
            "NORMAL": 12,
            "POSITION": 11,
            "TANGENT": 13,
            "TEXCOORD_0": 14
          },
          "indices": 15,
          "material": 2,
          "mode": 4
        }
      ]
    }
  ],
  "nodes": [
    {
      "children": [
        1
      ],
      "matrix": [
        1.0,
        0.0,
        0.0,
        0.0,
        0.0,
        2.220446049250313e-16,
        -1.0,
        0.0,
        0.0,
        1.0,
        2.220446049250313e-16,
        0.0,
        0.0,
        0.0,
        0.0,
        1.0
      ],
      "name": "Sketchfab_model"
    },
    {
      "children": [
        2
      ],
      "matrix": [
        0.009999999776482582,
        0.0,
        0.0,
        0.0,
        0.0,
        0.0,
        0.009999999776482582,
        0.0,
        0.0,
        -0.009999999776482582,
        0.0,
        0.0,
        0.0,
        0.0,
        0.0,
        1.0
      ],
      "name": "9284e854931840dcbdf2a68a4b731f68.fbx"
    },
    {
      "children": [
        3,
        5,
        7
      ],
      "name": "RootNode"
    },
    {
      "children": [
        4
      ],
      "matrix": [
        100.0,
        0.0,
        0.0,
        0.0,
        0.0,
        -1.629206793918314e-05,
        -99.99999999999868,
        0.0,
        0.0,
        99.99999999999868,
        -1.629206793918314e-05,
        0.0,
        11.263232231140137,
        91.83990478515625,
        -49.54254913330078,
        1.0
      ],
      "name": "Cam"
    },
    {
      "mesh": 0,
      "name": "Cam_Texture_0"
    },
    {
      "children": [
        6
      ],
      "matrix": [
        100.0,
        0.0,
        0.0,
        0.0,
        0.0,
        -1.629206793918314e-05,
        -99.99999999999868,
        0.0,
        0.0,
        99.99999999999868,
        -1.629206793918314e-05,
        0.0,
        0.0,
        0.0,
        0.0,
        1.0
      ],
      "name": "Flash"
    },
    {
      "mesh": 1,
      "name": "Flash_Flash_0"
    },
    {
      "children": [
        8
      ],
      "matrix": [
        100.0,
        0.0,
        0.0,
        0.0,
        0.0,
        -1.629206793918314e-05,
        -99.99999999999868,
        0.0,
        0.0,
        99.99999999999868,
        -1.629206793918314e-05,
        0.0,
        0.0,
        0.0,
        0.0,
        1.0
      ],
      "name": "Glass"
    },
    {
      "mesh": 2,
      "name": "Glass_Glass_0"
    }
  ],
  "samplers": [
    {
      "magFilter": 9729,
      "minFilter": 9987,
      "wrapS": 10497,
      "wrapT": 10497
    }
  ],
  "scene": 0,
  "scenes": [
    {
      "name": "Sketchfab_Scene",
      "nodes": [
        0
      ]
    }
  ],
  "textures": [
    {
      "sampler": 0,
      "source": 0
    },
    {
      "sampler": 0,
      "source": 1
    },
    {
      "sampler": 0,
      "source": 2
    },
    {
      "sampler": 0,
      "source": 3
    },
    {
      "sampler": 0,
      "source": 4
    },
    {
      "sampler": 0,
      "source": 5
    },
    {
      "sampler": 0,
      "source": 6
    }
  ]
}
